<?xml version="1.0" encoding="UTF-8" standalone="no"?>
<!DOCTYPE svg PUBLIC "-//W3C//DTD SVG 1.1//EN"
 "http://www.w3.org/Graphics/SVG/1.1/DTD/svg11.dtd">
<!-- Generated by graphviz version 2.47.0 (20210316.0004)
 -->
<!-- Title: dependencies Pages: 1 -->
<svg width="1016pt" height="211pt"
 viewBox="0.00 0.00 1016.00 211.00" xmlns="http://www.w3.org/2000/svg" xmlns:xlink="http://www.w3.org/1999/xlink">
<g id="graph0" class="graph" transform="scale(1 1) rotate(0) translate(4 207)">
<title>dependencies</title>
<polygon fill="white" stroke="transparent" points="-4,4 -4,-207 1012,-207 1012,4 -4,4"/>
<text text-anchor="start" x="483.01" y="-42.4" font-family="Times-12" font-weight="bold" font-size="14.00">Legend</text>
<polygon fill="#ffffb3" stroke="transparent" points="270,-10 270,-30 290,-30 290,-10 270,-10"/>
<text text-anchor="start" x="293.63" y="-15.4" font-family="Times-12" font-size="14.00"> &#160;Declarations</text>
<polygon fill="#8dd3c7" stroke="transparent" points="383,-10 383,-30 403,-30 403,-10 383,-10"/>
<text text-anchor="start" x="406.73" y="-15.4" font-family="Times-12" font-size="14.00"> &#160;Module</text>
<polygon fill="#80b1d3" stroke="transparent" points="469,-10 469,-30 489,-30 489,-10 469,-10"/>
<text text-anchor="start" x="492.78" y="-15.4" font-family="Times-12" font-size="14.00"> &#160;Bootstrap</text>
<polygon fill="#fdb462" stroke="transparent" points="566,-10 566,-30 586,-30 586,-10 566,-10"/>
<text text-anchor="start" x="589.67" y="-15.4" font-family="Times-12" font-size="14.00"> &#160;Providers</text>
<polygon fill="#fb8072" stroke="transparent" points="662,-10 662,-30 682,-30 682,-10 662,-10"/>
<text text-anchor="start" x="685.73" y="-15.4" font-family="Times-12" font-size="14.00"> &#160;Exports</text>
<g id="clust1" class="cluster">
<title>cluster_AuthModule</title>
<polygon fill="none" stroke="black" stroke-dasharray="1,5" points="8,-70 8,-195 1000,-195 1000,-70 8,-70"/>
</g>
<g id="clust2" class="cluster">
<title>cluster_AuthModule_declarations</title>
<polygon fill="none" stroke="black" points="172,-78 172,-130 992,-130 992,-78 172,-78"/>
</g>
<g id="clust8" class="cluster">
<title>cluster_AuthModule_imports</title>
<polygon fill="none" stroke="black" points="16,-78 16,-130 164,-130 164,-78 16,-78"/>
</g>
<!-- ChangepassworsComponent -->
<g id="node1" class="node">
<title>ChangepassworsComponent</title>
<polygon fill="#ffffb3" stroke="black" points="983.91,-122 808.09,-122 808.09,-86 983.91,-86 983.91,-122"/>
<text text-anchor="middle" x="896" y="-99.8" font-family="Times,serif" font-size="14.00">ChangepassworsComponent</text>
</g>
<!-- AuthModule -->
<g id="node6" class="node">
<title>AuthModule</title>
<polygon fill="#8dd3c7" stroke="black" points="570.55,-187 567.55,-191 546.55,-191 543.55,-187 483.45,-187 483.45,-151 570.55,-151 570.55,-187"/>
<text text-anchor="middle" x="527" y="-164.8" font-family="Times,serif" font-size="14.00">AuthModule</text>
</g>
<!-- ChangepassworsComponent&#45;&gt;AuthModule -->
<g id="edge1" class="edge">
<title>ChangepassworsComponent&#45;&gt;AuthModule</title>
<path fill="none" stroke="black" d="M896,-122.28C896,-143.32 896,-175 896,-175 896,-175 580.78,-175 580.78,-175"/>
<polygon fill="black" stroke="black" points="580.78,-171.5 570.78,-175 580.78,-178.5 580.78,-171.5"/>
</g>
<!-- LoginComponent -->
<g id="node2" class="node">
<title>LoginComponent</title>
<polygon fill="#ffffb3" stroke="black" points="790.28,-122 675.72,-122 675.72,-86 790.28,-86 790.28,-122"/>
<text text-anchor="middle" x="733" y="-99.8" font-family="Times,serif" font-size="14.00">LoginComponent</text>
</g>
<!-- LoginComponent&#45;&gt;AuthModule -->
<g id="edge2" class="edge">
<title>LoginComponent&#45;&gt;AuthModule</title>
<path fill="none" stroke="black" d="M733,-122.02C733,-139.37 733,-163 733,-163 733,-163 580.69,-163 580.69,-163"/>
<polygon fill="black" stroke="black" points="580.69,-159.5 570.69,-163 580.69,-166.5 580.69,-159.5"/>
</g>
<!-- ProfileComponent -->
<g id="node3" class="node">
<title>ProfileComponent</title>
<polygon fill="#ffffb3" stroke="black" points="657.93,-122 538.07,-122 538.07,-86 657.93,-86 657.93,-122"/>
<text text-anchor="middle" x="598" y="-99.8" font-family="Times,serif" font-size="14.00">ProfileComponent</text>
</g>
<!-- ProfileComponent&#45;&gt;AuthModule -->
<g id="edge3" class="edge">
<title>ProfileComponent&#45;&gt;AuthModule</title>
<path fill="none" stroke="black" d="M554.53,-122.11C554.53,-122.11 554.53,-140.99 554.53,-140.99"/>
<polygon fill="black" stroke="black" points="551.03,-140.99 554.53,-150.99 558.03,-140.99 551.03,-140.99"/>
</g>
<!-- RegisterComponent -->
<g id="node4" class="node">
<title>RegisterComponent</title>
<polygon fill="#ffffb3" stroke="black" points="519.98,-122 392.02,-122 392.02,-86 519.98,-86 519.98,-122"/>
<text text-anchor="middle" x="456" y="-99.8" font-family="Times,serif" font-size="14.00">RegisterComponent</text>
</g>
<!-- RegisterComponent&#45;&gt;AuthModule -->
<g id="edge4" class="edge">
<title>RegisterComponent&#45;&gt;AuthModule</title>
<path fill="none" stroke="black" d="M501.61,-122.11C501.61,-122.11 501.61,-140.99 501.61,-140.99"/>
<polygon fill="black" stroke="black" points="498.11,-140.99 501.61,-150.99 505.11,-140.99 498.11,-140.99"/>
</g>
<!-- TwostepverificationComponent -->
<g id="node5" class="node">
<title>TwostepverificationComponent</title>
<polygon fill="#ffffb3" stroke="black" points="374.07,-122 179.93,-122 179.93,-86 374.07,-86 374.07,-122"/>
<text text-anchor="middle" x="277" y="-99.8" font-family="Times,serif" font-size="14.00">TwostepverificationComponent</text>
</g>
<!-- TwostepverificationComponent&#45;&gt;AuthModule -->
<g id="edge5" class="edge">
<title>TwostepverificationComponent&#45;&gt;AuthModule</title>
<path fill="none" stroke="black" d="M277,-122.02C277,-139.37 277,-163 277,-163 277,-163 473.17,-163 473.17,-163"/>
<polygon fill="black" stroke="black" points="473.17,-166.5 483.17,-163 473.17,-159.5 473.17,-166.5"/>
</g>
<!-- AuthRoutingModule -->
<g id="node7" class="node">
<title>AuthRoutingModule</title>
<polygon fill="#8dd3c7" stroke="black" points="156.17,-122 153.17,-126 132.17,-126 129.17,-122 23.83,-122 23.83,-86 156.17,-86 156.17,-122"/>
<text text-anchor="middle" x="90" y="-99.8" font-family="Times,serif" font-size="14.00">AuthRoutingModule</text>
</g>
<!-- AuthRoutingModule&#45;&gt;AuthModule -->
<g id="edge6" class="edge">
<title>AuthRoutingModule&#45;&gt;AuthModule</title>
<path fill="none" stroke="black" d="M90,-122.28C90,-143.32 90,-175 90,-175 90,-175 473.1,-175 473.1,-175"/>
<polygon fill="black" stroke="black" points="473.1,-178.5 483.1,-175 473.1,-171.5 473.1,-178.5"/>
</g>
</g>
</svg>
