<?xml version="1.0" encoding="UTF-8" standalone="no"?>
<!DOCTYPE svg PUBLIC "-//W3C//DTD SVG 1.1//EN"
 "http://www.w3.org/Graphics/SVG/1.1/DTD/svg11.dtd">
<!-- Generated by graphviz version 2.47.0 (20210316.0004)
 -->
<!-- Title: dependencies Pages: 1 -->
<svg width="504pt" height="284pt"
 viewBox="0.00 0.00 504.00 284.00" xmlns="http://www.w3.org/2000/svg" xmlns:xlink="http://www.w3.org/1999/xlink">
<g id="graph0" class="graph" transform="scale(1 1) rotate(0) translate(4 280)">
<title>dependencies</title>
<polygon fill="white" stroke="transparent" points="-4,4 -4,-280 500,-280 500,4 -4,4"/>
<text text-anchor="start" x="227.01" y="-42.4" font-family="Times-12" font-weight="bold" font-size="14.00">Legend</text>
<polygon fill="#ffffb3" stroke="transparent" points="14,-10 14,-30 34,-30 34,-10 14,-10"/>
<text text-anchor="start" x="37.63" y="-15.4" font-family="Times-12" font-size="14.00"> &#160;Declarations</text>
<polygon fill="#8dd3c7" stroke="transparent" points="127,-10 127,-30 147,-30 147,-10 127,-10"/>
<text text-anchor="start" x="150.73" y="-15.4" font-family="Times-12" font-size="14.00"> &#160;Module</text>
<polygon fill="#80b1d3" stroke="transparent" points="213,-10 213,-30 233,-30 233,-10 213,-10"/>
<text text-anchor="start" x="236.78" y="-15.4" font-family="Times-12" font-size="14.00"> &#160;Bootstrap</text>
<polygon fill="#fdb462" stroke="transparent" points="310,-10 310,-30 330,-30 330,-10 310,-10"/>
<text text-anchor="start" x="333.67" y="-15.4" font-family="Times-12" font-size="14.00"> &#160;Providers</text>
<polygon fill="#fb8072" stroke="transparent" points="406,-10 406,-30 426,-30 426,-10 406,-10"/>
<text text-anchor="start" x="429.73" y="-15.4" font-family="Times-12" font-size="14.00"> &#160;Exports</text>
<g id="clust1" class="cluster">
<title>cluster_AppServerModule</title>
<polygon fill="none" stroke="black" stroke-dasharray="1,5" points="137,-70 137,-268 359,-268 359,-70 137,-70"/>
</g>
<g id="clust3" class="cluster">
<title>cluster_AppServerModule_imports</title>
<polygon fill="none" stroke="black" points="145,-78 145,-130 351,-130 351,-78 145,-78"/>
</g>
<g id="clust5" class="cluster">
<title>cluster_AppServerModule_bootstrap</title>
<polygon fill="none" stroke="black" points="186,-208 186,-260 310,-260 310,-208 186,-208"/>
</g>
<!-- AppModule -->
<g id="node1" class="node">
<title>AppModule</title>
<polygon fill="#8dd3c7" stroke="black" points="342.66,-122 339.66,-126 318.66,-126 315.66,-122 259.34,-122 259.34,-86 342.66,-86 342.66,-122"/>
<text text-anchor="middle" x="301" y="-99.8" font-family="Times,serif" font-size="14.00">AppModule</text>
</g>
<!-- AppServerModule -->
<g id="node3" class="node">
<title>AppServerModule</title>
<polygon fill="#8dd3c7" stroke="black" points="308.19,-187 305.19,-191 284.19,-191 281.19,-187 187.81,-187 187.81,-151 308.19,-151 308.19,-187"/>
<text text-anchor="middle" x="248" y="-164.8" font-family="Times,serif" font-size="14.00">AppServerModule</text>
</g>
<!-- AppModule&#45;&gt;AppServerModule -->
<g id="edge1" class="edge">
<title>AppModule&#45;&gt;AppServerModule</title>
<path fill="none" stroke="black" d="M283.63,-122.11C283.63,-122.11 283.63,-140.99 283.63,-140.99"/>
<polygon fill="black" stroke="black" points="280.13,-140.99 283.63,-150.99 287.13,-140.99 280.13,-140.99"/>
</g>
<!-- AuthModule -->
<g id="node2" class="node">
<title>AuthModule</title>
<polygon fill="#8dd3c7" stroke="black" points="240.55,-122 237.55,-126 216.55,-126 213.55,-122 153.45,-122 153.45,-86 240.55,-86 240.55,-122"/>
<text text-anchor="middle" x="197" y="-99.8" font-family="Times,serif" font-size="14.00">AuthModule</text>
</g>
<!-- AuthModule&#45;&gt;AppServerModule -->
<g id="edge2" class="edge">
<title>AuthModule&#45;&gt;AppServerModule</title>
<path fill="none" stroke="black" d="M214.34,-122.11C214.34,-122.11 214.34,-140.99 214.34,-140.99"/>
<polygon fill="black" stroke="black" points="210.84,-140.99 214.34,-150.99 217.84,-140.99 210.84,-140.99"/>
</g>
<!-- AppComponent  -->
<g id="node4" class="node">
<title>AppComponent </title>
<polygon fill="#80b1d3" stroke="black" points="302.44,-252 193.56,-252 193.56,-216 302.44,-216 302.44,-252"/>
<text text-anchor="middle" x="248" y="-229.8" font-family="Times,serif" font-size="14.00">AppComponent </text>
</g>
<!-- AppServerModule&#45;&gt;AppComponent  -->
<g id="edge3" class="edge">
<title>AppServerModule&#45;&gt;AppComponent </title>
<path fill="none" stroke="black" stroke-dasharray="1,5" d="M248,-187.11C248,-187.11 248,-205.99 248,-205.99"/>
<polygon fill="black" stroke="black" points="244.5,-205.99 248,-215.99 251.5,-205.99 244.5,-205.99"/>
</g>
</g>
</svg>
