<?xml version="1.0" encoding="UTF-8" standalone="no"?>
<!DOCTYPE svg PUBLIC "-//W3C//DTD SVG 1.1//EN"
 "http://www.w3.org/Graphics/SVG/1.1/DTD/svg11.dtd">
<!-- Generated by graphviz version 2.47.0 (20210316.0004)
 -->
<!-- Title: dependencies Pages: 1 -->
<svg width="1564pt" height="211pt"
 viewBox="0.00 0.00 1564.00 211.00" xmlns="http://www.w3.org/2000/svg" xmlns:xlink="http://www.w3.org/1999/xlink">
<g id="graph0" class="graph" transform="scale(1 1) rotate(0) translate(4 207)">
<title>dependencies</title>
<polygon fill="white" stroke="transparent" points="-4,4 -4,-207 1560,-207 1560,4 -4,4"/>
<text text-anchor="start" x="757.01" y="-42.4" font-family="Times-12" font-weight="bold" font-size="14.00">Legend</text>
<polygon fill="#ffffb3" stroke="transparent" points="544,-10 544,-30 564,-30 564,-10 544,-10"/>
<text text-anchor="start" x="567.63" y="-15.4" font-family="Times-12" font-size="14.00"> &#160;Declarations</text>
<polygon fill="#8dd3c7" stroke="transparent" points="657,-10 657,-30 677,-30 677,-10 657,-10"/>
<text text-anchor="start" x="680.73" y="-15.4" font-family="Times-12" font-size="14.00"> &#160;Module</text>
<polygon fill="#80b1d3" stroke="transparent" points="743,-10 743,-30 763,-30 763,-10 743,-10"/>
<text text-anchor="start" x="766.78" y="-15.4" font-family="Times-12" font-size="14.00"> &#160;Bootstrap</text>
<polygon fill="#fdb462" stroke="transparent" points="840,-10 840,-30 860,-30 860,-10 840,-10"/>
<text text-anchor="start" x="863.67" y="-15.4" font-family="Times-12" font-size="14.00"> &#160;Providers</text>
<polygon fill="#fb8072" stroke="transparent" points="936,-10 936,-30 956,-30 956,-10 936,-10"/>
<text text-anchor="start" x="959.73" y="-15.4" font-family="Times-12" font-size="14.00"> &#160;Exports</text>
<g id="clust1" class="cluster">
<title>cluster_MoviesContentModule</title>
<polygon fill="none" stroke="black" stroke-dasharray="1,5" points="8,-70 8,-195 1548,-195 1548,-70 8,-70"/>
</g>
<g id="clust2" class="cluster">
<title>cluster_MoviesContentModule_declarations</title>
<polygon fill="none" stroke="black" points="230,-78 230,-130 1540,-130 1540,-78 230,-78"/>
</g>
<g id="clust12" class="cluster">
<title>cluster_MoviesContentModule_imports</title>
<polygon fill="none" stroke="black" points="16,-78 16,-130 222,-130 222,-78 16,-78"/>
</g>
<!-- DetailsComponent -->
<g id="node1" class="node">
<title>DetailsComponent</title>
<polygon fill="#ffffb3" stroke="black" points="1532.48,-122 1411.52,-122 1411.52,-86 1532.48,-86 1532.48,-122"/>
<text text-anchor="middle" x="1472" y="-99.8" font-family="Times,serif" font-size="14.00">DetailsComponent</text>
</g>
<!-- MoviesContentModule -->
<g id="node10" class="node">
<title>MoviesContentModule</title>
<polygon fill="#8dd3c7" stroke="black" points="882.88,-187 879.88,-191 858.88,-191 855.88,-187 737.12,-187 737.12,-151 882.88,-151 882.88,-187"/>
<text text-anchor="middle" x="810" y="-164.8" font-family="Times,serif" font-size="14.00">MoviesContentModule</text>
</g>
<!-- DetailsComponent&#45;&gt;MoviesContentModule -->
<g id="edge1" class="edge">
<title>DetailsComponent&#45;&gt;MoviesContentModule</title>
<path fill="none" stroke="black" d="M1472,-122.01C1472,-144.49 1472,-180 1472,-180 1472,-180 893.06,-180 893.06,-180"/>
<polygon fill="black" stroke="black" points="893.06,-176.5 883.06,-180 893.06,-183.5 893.06,-176.5"/>
</g>
<!-- HeaderComponent -->
<g id="node2" class="node">
<title>HeaderComponent</title>
<polygon fill="#ffffb3" stroke="black" points="1393.74,-122 1272.26,-122 1272.26,-86 1393.74,-86 1393.74,-122"/>
<text text-anchor="middle" x="1333" y="-99.8" font-family="Times,serif" font-size="14.00">HeaderComponent</text>
</g>
<!-- HeaderComponent&#45;&gt;MoviesContentModule -->
<g id="edge2" class="edge">
<title>HeaderComponent&#45;&gt;MoviesContentModule</title>
<path fill="none" stroke="black" d="M1333,-122.13C1333,-142.57 1333,-173 1333,-173 1333,-173 893,-173 893,-173"/>
<polygon fill="black" stroke="black" points="893,-169.5 883,-173 893,-176.5 893,-169.5"/>
</g>
<!-- MoviesComponent -->
<g id="node3" class="node">
<title>MoviesComponent</title>
<polygon fill="#ffffb3" stroke="black" points="1253.83,-122 1130.17,-122 1130.17,-86 1253.83,-86 1253.83,-122"/>
<text text-anchor="middle" x="1192" y="-99.8" font-family="Times,serif" font-size="14.00">MoviesComponent</text>
</g>
<!-- MoviesComponent&#45;&gt;MoviesContentModule -->
<g id="edge3" class="edge">
<title>MoviesComponent&#45;&gt;MoviesContentModule</title>
<path fill="none" stroke="black" d="M1192,-122.27C1192,-140.56 1192,-166 1192,-166 1192,-166 893.2,-166 893.2,-166"/>
<polygon fill="black" stroke="black" points="893.2,-162.5 883.2,-166 893.2,-169.5 893.2,-162.5"/>
</g>
<!-- MoviesreactsComponent -->
<g id="node4" class="node">
<title>MoviesreactsComponent</title>
<polygon fill="#ffffb3" stroke="black" points="1111.97,-122 956.03,-122 956.03,-86 1111.97,-86 1111.97,-122"/>
<text text-anchor="middle" x="1034" y="-99.8" font-family="Times,serif" font-size="14.00">MoviesreactsComponent</text>
</g>
<!-- MoviesreactsComponent&#45;&gt;MoviesContentModule -->
<g id="edge4" class="edge">
<title>MoviesreactsComponent&#45;&gt;MoviesContentModule</title>
<path fill="none" stroke="black" d="M1034,-122.01C1034,-138.05 1034,-159 1034,-159 1034,-159 893.04,-159 893.04,-159"/>
<polygon fill="black" stroke="black" points="893.04,-155.5 883.04,-159 893.04,-162.5 893.04,-155.5"/>
</g>
<!-- RatingComponent -->
<g id="node5" class="node">
<title>RatingComponent</title>
<polygon fill="#ffffb3" stroke="black" points="938.17,-122 819.83,-122 819.83,-86 938.17,-86 938.17,-122"/>
<text text-anchor="middle" x="879" y="-99.8" font-family="Times,serif" font-size="14.00">RatingComponent</text>
</g>
<!-- RatingComponent&#45;&gt;MoviesContentModule -->
<g id="edge5" class="edge">
<title>RatingComponent&#45;&gt;MoviesContentModule</title>
<path fill="none" stroke="black" d="M851.3,-122.11C851.3,-122.11 851.3,-140.99 851.3,-140.99"/>
<polygon fill="black" stroke="black" points="847.8,-140.99 851.3,-150.99 854.8,-140.99 847.8,-140.99"/>
</g>
<!-- SearchComponent -->
<g id="node6" class="node">
<title>SearchComponent</title>
<polygon fill="#ffffb3" stroke="black" points="801.92,-122 682.08,-122 682.08,-86 801.92,-86 801.92,-122"/>
<text text-anchor="middle" x="742" y="-99.8" font-family="Times,serif" font-size="14.00">SearchComponent</text>
</g>
<!-- SearchComponent&#45;&gt;MoviesContentModule -->
<g id="edge6" class="edge">
<title>SearchComponent&#45;&gt;MoviesContentModule</title>
<path fill="none" stroke="black" d="M769.39,-122.11C769.39,-122.11 769.39,-140.99 769.39,-140.99"/>
<polygon fill="black" stroke="black" points="765.89,-140.99 769.39,-150.99 772.89,-140.99 765.89,-140.99"/>
</g>
<!-- SpinnerComponent -->
<g id="node7" class="node">
<title>SpinnerComponent</title>
<polygon fill="#ffffb3" stroke="black" points="664.38,-122 539.62,-122 539.62,-86 664.38,-86 664.38,-122"/>
<text text-anchor="middle" x="602" y="-99.8" font-family="Times,serif" font-size="14.00">SpinnerComponent</text>
</g>
<!-- SpinnerComponent&#45;&gt;MoviesContentModule -->
<g id="edge7" class="edge">
<title>SpinnerComponent&#45;&gt;MoviesContentModule</title>
<path fill="none" stroke="black" d="M602,-122.01C602,-138.05 602,-159 602,-159 602,-159 726.96,-159 726.96,-159"/>
<polygon fill="black" stroke="black" points="726.96,-162.5 736.96,-159 726.96,-155.5 726.96,-162.5"/>
</g>
<!-- TopMoviesComponent -->
<g id="node8" class="node">
<title>TopMoviesComponent</title>
<polygon fill="#ffffb3" stroke="black" points="521.88,-122 376.12,-122 376.12,-86 521.88,-86 521.88,-122"/>
<text text-anchor="middle" x="449" y="-99.8" font-family="Times,serif" font-size="14.00">TopMoviesComponent</text>
</g>
<!-- TopMoviesComponent&#45;&gt;MoviesContentModule -->
<g id="edge8" class="edge">
<title>TopMoviesComponent&#45;&gt;MoviesContentModule</title>
<path fill="none" stroke="black" d="M449,-122.27C449,-140.56 449,-166 449,-166 449,-166 726.95,-166 726.95,-166"/>
<polygon fill="black" stroke="black" points="726.95,-169.5 736.95,-166 726.95,-162.5 726.95,-169.5"/>
</g>
<!-- TopTvComponent -->
<g id="node9" class="node">
<title>TopTvComponent</title>
<polygon fill="#ffffb3" stroke="black" points="357.94,-122 238.06,-122 238.06,-86 357.94,-86 357.94,-122"/>
<text text-anchor="middle" x="298" y="-99.8" font-family="Times,serif" font-size="14.00">TopTvComponent</text>
</g>
<!-- TopTvComponent&#45;&gt;MoviesContentModule -->
<g id="edge9" class="edge">
<title>TopTvComponent&#45;&gt;MoviesContentModule</title>
<path fill="none" stroke="black" d="M298,-122.13C298,-142.57 298,-173 298,-173 298,-173 726.91,-173 726.91,-173"/>
<polygon fill="black" stroke="black" points="726.91,-176.5 736.91,-173 726.91,-169.5 726.91,-176.5"/>
</g>
<!-- MoviesContentRoutingModule -->
<g id="node11" class="node">
<title>MoviesContentRoutingModule</title>
<polygon fill="#8dd3c7" stroke="black" points="214.49,-122 211.49,-126 190.49,-126 187.49,-122 23.51,-122 23.51,-86 214.49,-86 214.49,-122"/>
<text text-anchor="middle" x="119" y="-99.8" font-family="Times,serif" font-size="14.00">MoviesContentRoutingModule</text>
</g>
<!-- MoviesContentRoutingModule&#45;&gt;MoviesContentModule -->
<g id="edge10" class="edge">
<title>MoviesContentRoutingModule&#45;&gt;MoviesContentModule</title>
<path fill="none" stroke="black" d="M119,-122.01C119,-144.49 119,-180 119,-180 119,-180 727.03,-180 727.03,-180"/>
<polygon fill="black" stroke="black" points="727.03,-183.5 737.03,-180 727.03,-176.5 727.03,-183.5"/>
</g>
</g>
</svg>
