<?xml version="1.0" encoding="UTF-8" standalone="no"?>
<!DOCTYPE svg PUBLIC "-//W3C//DTD SVG 1.1//EN"
 "http://www.w3.org/Graphics/SVG/1.1/DTD/svg11.dtd">
<!-- Generated by graphviz version 2.47.0 (20210316.0004)
 -->
<!-- Title: dependencies Pages: 1 -->
<svg width="2130pt" height="284pt"
 viewBox="0.00 0.00 2130.00 284.00" xmlns="http://www.w3.org/2000/svg" xmlns:xlink="http://www.w3.org/1999/xlink">
<g id="graph0" class="graph" transform="scale(1 1) rotate(0) translate(4 280)">
<title>dependencies</title>
<polygon fill="white" stroke="transparent" points="-4,4 -4,-280 2126,-280 2126,4 -4,4"/>
<text text-anchor="start" x="1040.01" y="-42.4" font-family="Times-12" font-weight="bold" font-size="14.00">Legend</text>
<polygon fill="#ffffb3" stroke="transparent" points="827,-10 827,-30 847,-30 847,-10 827,-10"/>
<text text-anchor="start" x="850.63" y="-15.4" font-family="Times-12" font-size="14.00"> &#160;Declarations</text>
<polygon fill="#8dd3c7" stroke="transparent" points="940,-10 940,-30 960,-30 960,-10 940,-10"/>
<text text-anchor="start" x="963.73" y="-15.4" font-family="Times-12" font-size="14.00"> &#160;Module</text>
<polygon fill="#80b1d3" stroke="transparent" points="1026,-10 1026,-30 1046,-30 1046,-10 1026,-10"/>
<text text-anchor="start" x="1049.78" y="-15.4" font-family="Times-12" font-size="14.00"> &#160;Bootstrap</text>
<polygon fill="#fdb462" stroke="transparent" points="1123,-10 1123,-30 1143,-30 1143,-10 1123,-10"/>
<text text-anchor="start" x="1146.67" y="-15.4" font-family="Times-12" font-size="14.00"> &#160;Providers</text>
<polygon fill="#fb8072" stroke="transparent" points="1219,-10 1219,-30 1239,-30 1239,-10 1219,-10"/>
<text text-anchor="start" x="1242.73" y="-15.4" font-family="Times-12" font-size="14.00"> &#160;Exports</text>
<g id="clust1" class="cluster">
<title>cluster_AppModule</title>
<polygon fill="none" stroke="black" stroke-dasharray="1,5" points="8,-70 8,-268 2114,-268 2114,-70 8,-70"/>
</g>
<g id="clust16" class="cluster">
<title>cluster_AppModule_imports</title>
<polygon fill="none" stroke="black" points="1962,-78 1962,-130 2106,-130 2106,-78 1962,-78"/>
</g>
<g id="clust18" class="cluster">
<title>cluster_AppModule_bootstrap</title>
<polygon fill="none" stroke="black" points="1055,-208 1055,-260 1179,-260 1179,-208 1055,-208"/>
</g>
<g id="clust2" class="cluster">
<title>cluster_AppModule_declarations</title>
<polygon fill="none" stroke="black" points="16,-78 16,-130 1954,-130 1954,-78 16,-78"/>
</g>
<!-- AppComponent -->
<g id="node1" class="node">
<title>AppComponent</title>
<polygon fill="#ffffb3" stroke="black" points="1945.94,-122 1840.06,-122 1840.06,-86 1945.94,-86 1945.94,-122"/>
<text text-anchor="middle" x="1893" y="-99.8" font-family="Times,serif" font-size="14.00">AppComponent</text>
</g>
<!-- AppModule -->
<g id="node14" class="node">
<title>AppModule</title>
<polygon fill="#8dd3c7" stroke="black" points="1158.66,-187 1155.66,-191 1134.66,-191 1131.66,-187 1075.34,-187 1075.34,-151 1158.66,-151 1158.66,-187"/>
<text text-anchor="middle" x="1117" y="-164.8" font-family="Times,serif" font-size="14.00">AppModule</text>
</g>
<!-- AppComponent&#45;&gt;AppModule -->
<g id="edge1" class="edge">
<title>AppComponent&#45;&gt;AppModule</title>
<path fill="none" stroke="black" d="M1893,-122.04C1893,-143.66 1893,-177 1893,-177 1893,-177 1168.72,-177 1168.72,-177"/>
<polygon fill="black" stroke="black" points="1168.72,-173.5 1158.72,-177 1168.72,-180.5 1168.72,-173.5"/>
</g>
<!-- DetailsComponent -->
<g id="node2" class="node">
<title>DetailsComponent</title>
<polygon fill="#ffffb3" stroke="black" points="1822.48,-122 1701.52,-122 1701.52,-86 1822.48,-86 1822.48,-122"/>
<text text-anchor="middle" x="1762" y="-99.8" font-family="Times,serif" font-size="14.00">DetailsComponent</text>
</g>
<!-- DetailsComponent&#45;&gt;AppModule -->
<g id="edge2" class="edge">
<title>DetailsComponent&#45;&gt;AppModule</title>
<path fill="none" stroke="black" d="M1762,-122.22C1762,-142.37 1762,-172 1762,-172 1762,-172 1168.82,-172 1168.82,-172"/>
<polygon fill="black" stroke="black" points="1168.82,-168.5 1158.82,-172 1168.82,-175.5 1168.82,-168.5"/>
</g>
<!-- FooterComponent -->
<g id="node3" class="node">
<title>FooterComponent</title>
<polygon fill="#ffffb3" stroke="black" points="1683.88,-122 1566.12,-122 1566.12,-86 1683.88,-86 1683.88,-122"/>
<text text-anchor="middle" x="1625" y="-99.8" font-family="Times,serif" font-size="14.00">FooterComponent</text>
</g>
<!-- FooterComponent&#45;&gt;AppModule -->
<g id="edge3" class="edge">
<title>FooterComponent&#45;&gt;AppModule</title>
<path fill="none" stroke="black" d="M1625,-122.22C1625,-140.83 1625,-167 1625,-167 1625,-167 1169,-167 1169,-167"/>
<polygon fill="black" stroke="black" points="1169,-163.5 1159,-167 1169,-170.5 1169,-163.5"/>
</g>
<!-- LoginComponent -->
<g id="node4" class="node">
<title>LoginComponent</title>
<polygon fill="#ffffb3" stroke="black" points="1548.28,-122 1433.72,-122 1433.72,-86 1548.28,-86 1548.28,-122"/>
<text text-anchor="middle" x="1491" y="-99.8" font-family="Times,serif" font-size="14.00">LoginComponent</text>
</g>
<!-- LoginComponent&#45;&gt;AppModule -->
<g id="edge4" class="edge">
<title>LoginComponent&#45;&gt;AppModule</title>
<path fill="none" stroke="black" d="M1491,-122.03C1491,-139.06 1491,-162 1491,-162 1491,-162 1168.81,-162 1168.81,-162"/>
<polygon fill="black" stroke="black" points="1168.81,-158.5 1158.81,-162 1168.81,-165.5 1168.81,-158.5"/>
</g>
<!-- MoviesComponent -->
<g id="node5" class="node">
<title>MoviesComponent</title>
<polygon fill="#ffffb3" stroke="black" points="1415.83,-122 1292.17,-122 1292.17,-86 1415.83,-86 1415.83,-122"/>
<text text-anchor="middle" x="1354" y="-99.8" font-family="Times,serif" font-size="14.00">MoviesComponent</text>
</g>
<!-- MoviesComponent&#45;&gt;AppModule -->
<g id="edge5" class="edge">
<title>MoviesComponent&#45;&gt;AppModule</title>
<path fill="none" stroke="black" d="M1354,-122.24C1354,-137.57 1354,-157 1354,-157 1354,-157 1168.83,-157 1168.83,-157"/>
<polygon fill="black" stroke="black" points="1168.83,-153.5 1158.83,-157 1168.83,-160.5 1168.83,-153.5"/>
</g>
<!-- MoviesreactsComponent -->
<g id="node6" class="node">
<title>MoviesreactsComponent</title>
<polygon fill="#ffffb3" stroke="black" points="1273.97,-122 1118.03,-122 1118.03,-86 1273.97,-86 1273.97,-122"/>
<text text-anchor="middle" x="1196" y="-99.8" font-family="Times,serif" font-size="14.00">MoviesreactsComponent</text>
</g>
<!-- MoviesreactsComponent&#45;&gt;AppModule -->
<g id="edge6" class="edge">
<title>MoviesreactsComponent&#45;&gt;AppModule</title>
<path fill="none" stroke="black" d="M1138.42,-122.11C1138.42,-122.11 1138.42,-140.99 1138.42,-140.99"/>
<polygon fill="black" stroke="black" points="1134.92,-140.99 1138.42,-150.99 1141.92,-140.99 1134.92,-140.99"/>
</g>
<!-- NavbarComponent -->
<g id="node7" class="node">
<title>NavbarComponent</title>
<polygon fill="#ffffb3" stroke="black" points="1100.03,-122 977.97,-122 977.97,-86 1100.03,-86 1100.03,-122"/>
<text text-anchor="middle" x="1039" y="-99.8" font-family="Times,serif" font-size="14.00">NavbarComponent</text>
</g>
<!-- NavbarComponent&#45;&gt;AppModule -->
<g id="edge7" class="edge">
<title>NavbarComponent&#45;&gt;AppModule</title>
<path fill="none" stroke="black" d="M1087.72,-122.11C1087.72,-122.11 1087.72,-140.99 1087.72,-140.99"/>
<polygon fill="black" stroke="black" points="1084.22,-140.99 1087.72,-150.99 1091.22,-140.99 1084.22,-140.99"/>
</g>
<!-- NotificationsComponent -->
<g id="node8" class="node">
<title>NotificationsComponent</title>
<polygon fill="#ffffb3" stroke="black" points="960.43,-122 805.57,-122 805.57,-86 960.43,-86 960.43,-122"/>
<text text-anchor="middle" x="883" y="-99.8" font-family="Times,serif" font-size="14.00">NotificationsComponent</text>
</g>
<!-- NotificationsComponent&#45;&gt;AppModule -->
<g id="edge8" class="edge">
<title>NotificationsComponent&#45;&gt;AppModule</title>
<path fill="none" stroke="black" d="M883,-122.24C883,-137.57 883,-157 883,-157 883,-157 1065.17,-157 1065.17,-157"/>
<polygon fill="black" stroke="black" points="1065.17,-160.5 1075.17,-157 1065.17,-153.5 1065.17,-160.5"/>
</g>
<!-- RatingComponent -->
<g id="node9" class="node">
<title>RatingComponent</title>
<polygon fill="#ffffb3" stroke="black" points="787.17,-122 668.83,-122 668.83,-86 787.17,-86 787.17,-122"/>
<text text-anchor="middle" x="728" y="-99.8" font-family="Times,serif" font-size="14.00">RatingComponent</text>
</g>
<!-- RatingComponent&#45;&gt;AppModule -->
<g id="edge9" class="edge">
<title>RatingComponent&#45;&gt;AppModule</title>
<path fill="none" stroke="black" d="M728,-122.03C728,-139.06 728,-162 728,-162 728,-162 1065,-162 1065,-162"/>
<polygon fill="black" stroke="black" points="1065,-165.5 1075,-162 1065,-158.5 1065,-165.5"/>
</g>
<!-- RegisterComponent -->
<g id="node10" class="node">
<title>RegisterComponent</title>
<polygon fill="#ffffb3" stroke="black" points="650.98,-122 523.02,-122 523.02,-86 650.98,-86 650.98,-122"/>
<text text-anchor="middle" x="587" y="-99.8" font-family="Times,serif" font-size="14.00">RegisterComponent</text>
</g>
<!-- RegisterComponent&#45;&gt;AppModule -->
<g id="edge10" class="edge">
<title>RegisterComponent&#45;&gt;AppModule</title>
<path fill="none" stroke="black" d="M587,-122.22C587,-140.83 587,-167 587,-167 587,-167 1064.97,-167 1064.97,-167"/>
<polygon fill="black" stroke="black" points="1064.97,-170.5 1074.97,-167 1064.97,-163.5 1064.97,-170.5"/>
</g>
<!-- SettingsComponent -->
<g id="node11" class="node">
<title>SettingsComponent</title>
<polygon fill="#ffffb3" stroke="black" points="505.45,-122 378.55,-122 378.55,-86 505.45,-86 505.45,-122"/>
<text text-anchor="middle" x="442" y="-99.8" font-family="Times,serif" font-size="14.00">SettingsComponent</text>
</g>
<!-- SettingsComponent&#45;&gt;AppModule -->
<g id="edge11" class="edge">
<title>SettingsComponent&#45;&gt;AppModule</title>
<path fill="none" stroke="black" d="M442,-122.22C442,-142.37 442,-172 442,-172 442,-172 1065.29,-172 1065.29,-172"/>
<polygon fill="black" stroke="black" points="1065.29,-175.5 1075.29,-172 1065.29,-168.5 1065.29,-175.5"/>
</g>
<!-- SpinnerComponent -->
<g id="node12" class="node">
<title>SpinnerComponent</title>
<polygon fill="#ffffb3" stroke="black" points="360.38,-122 235.62,-122 235.62,-86 360.38,-86 360.38,-122"/>
<text text-anchor="middle" x="298" y="-99.8" font-family="Times,serif" font-size="14.00">SpinnerComponent</text>
</g>
<!-- SpinnerComponent&#45;&gt;AppModule -->
<g id="edge12" class="edge">
<title>SpinnerComponent&#45;&gt;AppModule</title>
<path fill="none" stroke="black" d="M298,-122.04C298,-143.66 298,-177 298,-177 298,-177 1065.26,-177 1065.26,-177"/>
<polygon fill="black" stroke="black" points="1065.26,-180.5 1075.26,-177 1065.26,-173.5 1065.26,-180.5"/>
</g>
<!-- TwostepverificationComponent -->
<g id="node13" class="node">
<title>TwostepverificationComponent</title>
<polygon fill="#ffffb3" stroke="black" points="218.07,-122 23.93,-122 23.93,-86 218.07,-86 218.07,-122"/>
<text text-anchor="middle" x="121" y="-99.8" font-family="Times,serif" font-size="14.00">TwostepverificationComponent</text>
</g>
<!-- TwostepverificationComponent&#45;&gt;AppModule -->
<g id="edge13" class="edge">
<title>TwostepverificationComponent&#45;&gt;AppModule</title>
<path fill="none" stroke="black" d="M121,-122.09C121,-145.13 121,-182 121,-182 121,-182 1065.16,-182 1065.16,-182"/>
<polygon fill="black" stroke="black" points="1065.16,-185.5 1075.16,-182 1065.16,-178.5 1065.16,-185.5"/>
</g>
<!-- AppComponent  -->
<g id="node16" class="node">
<title>AppComponent </title>
<polygon fill="#80b1d3" stroke="black" points="1171.44,-252 1062.56,-252 1062.56,-216 1171.44,-216 1171.44,-252"/>
<text text-anchor="middle" x="1117" y="-229.8" font-family="Times,serif" font-size="14.00">AppComponent </text>
</g>
<!-- AppModule&#45;&gt;AppComponent  -->
<g id="edge15" class="edge">
<title>AppModule&#45;&gt;AppComponent </title>
<path fill="none" stroke="black" stroke-dasharray="1,5" d="M1117,-187.11C1117,-187.11 1117,-205.99 1117,-205.99"/>
<polygon fill="black" stroke="black" points="1113.5,-205.99 1117,-215.99 1120.5,-205.99 1113.5,-205.99"/>
</g>
<!-- AppRoutingModule -->
<g id="node15" class="node">
<title>AppRoutingModule</title>
<polygon fill="#8dd3c7" stroke="black" points="2098.27,-122 2095.27,-126 2074.27,-126 2071.27,-122 1969.73,-122 1969.73,-86 2098.27,-86 2098.27,-122"/>
<text text-anchor="middle" x="2034" y="-99.8" font-family="Times,serif" font-size="14.00">AppRoutingModule</text>
</g>
<!-- AppRoutingModule&#45;&gt;AppModule -->
<g id="edge14" class="edge">
<title>AppRoutingModule&#45;&gt;AppModule</title>
<path fill="none" stroke="black" d="M2034,-122.09C2034,-145.13 2034,-182 2034,-182 2034,-182 1168.78,-182 1168.78,-182"/>
<polygon fill="black" stroke="black" points="1168.78,-178.5 1158.78,-182 1168.78,-185.5 1168.78,-178.5"/>
</g>
</g>
</svg>
