<?xml version="1.0" encoding="UTF-8" standalone="no"?>
<!DOCTYPE svg PUBLIC "-//W3C//DTD SVG 1.1//EN"
 "http://www.w3.org/Graphics/SVG/1.1/DTD/svg11.dtd">
<!-- Generated by graphviz version 2.47.0 (20210316.0004)
 -->
<!-- Title: dependencies Pages: 1 -->
<svg width="2709pt" height="284pt"
 viewBox="0.00 0.00 2709.00 284.00" xmlns="http://www.w3.org/2000/svg" xmlns:xlink="http://www.w3.org/1999/xlink">
<g id="graph0" class="graph" transform="scale(1 1) rotate(0) translate(4 280)">
<title>dependencies</title>
<polygon fill="white" stroke="transparent" points="-4,4 -4,-280 2705,-280 2705,4 -4,4"/>
<text text-anchor="start" x="1329.51" y="-42.4" font-family="Times-12" font-weight="bold" font-size="14.00">Legend</text>
<polygon fill="#ffffb3" stroke="transparent" points="1116.5,-10 1116.5,-30 1136.5,-30 1136.5,-10 1116.5,-10"/>
<text text-anchor="start" x="1140.13" y="-15.4" font-family="Times-12" font-size="14.00"> &#160;Declarations</text>
<polygon fill="#8dd3c7" stroke="transparent" points="1229.5,-10 1229.5,-30 1249.5,-30 1249.5,-10 1229.5,-10"/>
<text text-anchor="start" x="1253.23" y="-15.4" font-family="Times-12" font-size="14.00"> &#160;Module</text>
<polygon fill="#80b1d3" stroke="transparent" points="1315.5,-10 1315.5,-30 1335.5,-30 1335.5,-10 1315.5,-10"/>
<text text-anchor="start" x="1339.28" y="-15.4" font-family="Times-12" font-size="14.00"> &#160;Bootstrap</text>
<polygon fill="#fdb462" stroke="transparent" points="1412.5,-10 1412.5,-30 1432.5,-30 1432.5,-10 1412.5,-10"/>
<text text-anchor="start" x="1436.17" y="-15.4" font-family="Times-12" font-size="14.00"> &#160;Providers</text>
<polygon fill="#fb8072" stroke="transparent" points="1508.5,-10 1508.5,-30 1528.5,-30 1528.5,-10 1508.5,-10"/>
<text text-anchor="start" x="1532.23" y="-15.4" font-family="Times-12" font-size="14.00"> &#160;Exports</text>
<g id="clust1" class="cluster">
<title>cluster_AppModule</title>
<polygon fill="none" stroke="black" stroke-dasharray="1,5" points="8,-70 8,-268 2549,-268 2549,-70 8,-70"/>
</g>
<g id="clust2" class="cluster">
<title>cluster_AppModule_declarations</title>
<polygon fill="none" stroke="black" points="168,-78 168,-130 2541,-130 2541,-78 168,-78"/>
</g>
<g id="clust19" class="cluster">
<title>cluster_AppModule_imports</title>
<polygon fill="none" stroke="black" points="16,-78 16,-130 160,-130 160,-78 16,-78"/>
</g>
<g id="clust21" class="cluster">
<title>cluster_AppModule_bootstrap</title>
<polygon fill="none" stroke="black" points="1920,-208 1920,-260 2044,-260 2044,-208 1920,-208"/>
</g>
<g id="clust29" class="cluster">
<title>cluster_AppServerModule</title>
<polygon fill="none" stroke="black" stroke-dasharray="1,5" points="2557,-208 2557,-260 2693,-260 2693,-208 2557,-208"/>
</g>
<!-- AppComponent -->
<g id="node1" class="node">
<title>AppComponent</title>
<polygon fill="#ffffb3" stroke="black" points="2532.94,-122 2427.06,-122 2427.06,-86 2532.94,-86 2532.94,-122"/>
<text text-anchor="middle" x="2480" y="-99.8" font-family="Times,serif" font-size="14.00">AppComponent</text>
</g>
<!-- AppModule -->
<g id="node17" class="node">
<title>AppModule</title>
<polygon fill="#8dd3c7" stroke="black" points="1527.66,-187 1524.66,-191 1503.66,-191 1500.66,-187 1444.34,-187 1444.34,-151 1527.66,-151 1527.66,-187"/>
<text text-anchor="middle" x="1486" y="-164.8" font-family="Times,serif" font-size="14.00">AppModule</text>
</g>
<!-- AppComponent&#45;&gt;AppModule -->
<g id="edge1" class="edge">
<title>AppComponent&#45;&gt;AppModule</title>
<path fill="none" stroke="black" d="M2480,-122.04C2480,-143.66 2480,-177 2480,-177 2480,-177 1537.76,-177 1537.76,-177"/>
<polygon fill="black" stroke="black" points="1537.76,-173.5 1527.76,-177 1537.76,-180.5 1537.76,-173.5"/>
</g>
<!-- DetailsComponent -->
<g id="node2" class="node">
<title>DetailsComponent</title>
<polygon fill="#ffffb3" stroke="black" points="2409.48,-122 2288.52,-122 2288.52,-86 2409.48,-86 2409.48,-122"/>
<text text-anchor="middle" x="2349" y="-99.8" font-family="Times,serif" font-size="14.00">DetailsComponent</text>
</g>
<!-- DetailsComponent&#45;&gt;AppModule -->
<g id="edge2" class="edge">
<title>DetailsComponent&#45;&gt;AppModule</title>
<path fill="none" stroke="black" d="M2349,-122.13C2349,-142.57 2349,-173 2349,-173 2349,-173 1537.92,-173 1537.92,-173"/>
<polygon fill="black" stroke="black" points="1537.92,-169.5 1527.92,-173 1537.92,-176.5 1537.92,-169.5"/>
</g>
<!-- FooterComponent -->
<g id="node3" class="node">
<title>FooterComponent</title>
<polygon fill="#ffffb3" stroke="black" points="2270.88,-122 2153.12,-122 2153.12,-86 2270.88,-86 2270.88,-122"/>
<text text-anchor="middle" x="2212" y="-99.8" font-family="Times,serif" font-size="14.00">FooterComponent</text>
</g>
<!-- FooterComponent&#45;&gt;AppModule -->
<g id="edge3" class="edge">
<title>FooterComponent&#45;&gt;AppModule</title>
<path fill="none" stroke="black" d="M2212,-122.11C2212,-141.34 2212,-169 2212,-169 2212,-169 1537.91,-169 1537.91,-169"/>
<polygon fill="black" stroke="black" points="1537.91,-165.5 1527.91,-169 1537.91,-172.5 1537.91,-165.5"/>
</g>
<!-- HeaderComponent -->
<g id="node4" class="node">
<title>HeaderComponent</title>
<polygon fill="#ffffb3" stroke="black" points="2134.74,-122 2013.26,-122 2013.26,-86 2134.74,-86 2134.74,-122"/>
<text text-anchor="middle" x="2074" y="-99.8" font-family="Times,serif" font-size="14.00">HeaderComponent</text>
</g>
<!-- HeaderComponent&#45;&gt;AppModule -->
<g id="edge4" class="edge">
<title>HeaderComponent&#45;&gt;AppModule</title>
<path fill="none" stroke="black" d="M2024.8,-122.27C2024.8,-140.56 2024.8,-166 2024.8,-166 2024.8,-166 1537.83,-166 1537.83,-166"/>
<polygon fill="black" stroke="black" points="1537.83,-162.5 1527.83,-166 1537.83,-169.5 1537.83,-162.5"/>
</g>
<!-- LoginComponent -->
<g id="node5" class="node">
<title>LoginComponent</title>
<polygon fill="#ffffb3" stroke="black" points="1995.28,-122 1880.72,-122 1880.72,-86 1995.28,-86 1995.28,-122"/>
<text text-anchor="middle" x="1938" y="-99.8" font-family="Times,serif" font-size="14.00">LoginComponent</text>
</g>
<!-- LoginComponent&#45;&gt;AppModule -->
<g id="edge5" class="edge">
<title>LoginComponent&#45;&gt;AppModule</title>
<path fill="none" stroke="black" d="M1904.07,-122.03C1904.07,-139.06 1904.07,-162 1904.07,-162 1904.07,-162 1538,-162 1538,-162"/>
<polygon fill="black" stroke="black" points="1538,-158.5 1528,-162 1538,-165.5 1538,-158.5"/>
</g>
<!-- MoviesComponent -->
<g id="node6" class="node">
<title>MoviesComponent</title>
<polygon fill="#ffffb3" stroke="black" points="1862.83,-122 1739.17,-122 1739.17,-86 1862.83,-86 1862.83,-122"/>
<text text-anchor="middle" x="1801" y="-99.8" font-family="Times,serif" font-size="14.00">MoviesComponent</text>
</g>
<!-- MoviesComponent&#45;&gt;AppModule -->
<g id="edge6" class="edge">
<title>MoviesComponent&#45;&gt;AppModule</title>
<path fill="none" stroke="black" d="M1801,-122.01C1801,-138.05 1801,-159 1801,-159 1801,-159 1537.83,-159 1537.83,-159"/>
<polygon fill="black" stroke="black" points="1537.83,-155.5 1527.83,-159 1537.83,-162.5 1537.83,-155.5"/>
</g>
<!-- MoviesreactsComponent -->
<g id="node7" class="node">
<title>MoviesreactsComponent</title>
<polygon fill="#ffffb3" stroke="black" points="1720.97,-122 1565.03,-122 1565.03,-86 1720.97,-86 1720.97,-122"/>
<text text-anchor="middle" x="1643" y="-99.8" font-family="Times,serif" font-size="14.00">MoviesreactsComponent</text>
</g>
<!-- MoviesreactsComponent&#45;&gt;AppModule -->
<g id="edge7" class="edge">
<title>MoviesreactsComponent&#45;&gt;AppModule</title>
<path fill="none" stroke="black" d="M1643,-122.12C1643,-136.78 1643,-155 1643,-155 1643,-155 1537.66,-155 1537.66,-155"/>
<polygon fill="black" stroke="black" points="1537.66,-151.5 1527.66,-155 1537.66,-158.5 1537.66,-151.5"/>
</g>
<!-- NavbarComponent -->
<g id="node8" class="node">
<title>NavbarComponent</title>
<polygon fill="#ffffb3" stroke="black" points="1547.03,-122 1424.97,-122 1424.97,-86 1547.03,-86 1547.03,-122"/>
<text text-anchor="middle" x="1486" y="-99.8" font-family="Times,serif" font-size="14.00">NavbarComponent</text>
</g>
<!-- NavbarComponent&#45;&gt;AppModule -->
<g id="edge8" class="edge">
<title>NavbarComponent&#45;&gt;AppModule</title>
<path fill="none" stroke="black" d="M1486,-122.11C1486,-122.11 1486,-140.99 1486,-140.99"/>
<polygon fill="black" stroke="black" points="1482.5,-140.99 1486,-150.99 1489.5,-140.99 1482.5,-140.99"/>
</g>
<!-- NotificationsComponent -->
<g id="node9" class="node">
<title>NotificationsComponent</title>
<polygon fill="#ffffb3" stroke="black" points="1407.43,-122 1252.57,-122 1252.57,-86 1407.43,-86 1407.43,-122"/>
<text text-anchor="middle" x="1330" y="-99.8" font-family="Times,serif" font-size="14.00">NotificationsComponent</text>
</g>
<!-- NotificationsComponent&#45;&gt;AppModule -->
<g id="edge9" class="edge">
<title>NotificationsComponent&#45;&gt;AppModule</title>
<path fill="none" stroke="black" d="M1330,-122.12C1330,-136.78 1330,-155 1330,-155 1330,-155 1434.19,-155 1434.19,-155"/>
<polygon fill="black" stroke="black" points="1434.19,-158.5 1444.19,-155 1434.19,-151.5 1434.19,-158.5"/>
</g>
<!-- RatingComponent -->
<g id="node10" class="node">
<title>RatingComponent</title>
<polygon fill="#ffffb3" stroke="black" points="1234.17,-122 1115.83,-122 1115.83,-86 1234.17,-86 1234.17,-122"/>
<text text-anchor="middle" x="1175" y="-99.8" font-family="Times,serif" font-size="14.00">RatingComponent</text>
</g>
<!-- RatingComponent&#45;&gt;AppModule -->
<g id="edge10" class="edge">
<title>RatingComponent&#45;&gt;AppModule</title>
<path fill="none" stroke="black" d="M1175,-122.01C1175,-138.05 1175,-159 1175,-159 1175,-159 1434.06,-159 1434.06,-159"/>
<polygon fill="black" stroke="black" points="1434.06,-162.5 1444.06,-159 1434.06,-155.5 1434.06,-162.5"/>
</g>
<!-- RegisterComponent -->
<g id="node11" class="node">
<title>RegisterComponent</title>
<polygon fill="#ffffb3" stroke="black" points="1097.98,-122 970.02,-122 970.02,-86 1097.98,-86 1097.98,-122"/>
<text text-anchor="middle" x="1034" y="-99.8" font-family="Times,serif" font-size="14.00">RegisterComponent</text>
</g>
<!-- RegisterComponent&#45;&gt;AppModule -->
<g id="edge11" class="edge">
<title>RegisterComponent&#45;&gt;AppModule</title>
<path fill="none" stroke="black" d="M1034,-122.03C1034,-139.06 1034,-162 1034,-162 1034,-162 1434.29,-162 1434.29,-162"/>
<polygon fill="black" stroke="black" points="1434.29,-165.5 1444.29,-162 1434.29,-158.5 1434.29,-165.5"/>
</g>
<!-- SearchComponent -->
<g id="node12" class="node">
<title>SearchComponent</title>
<polygon fill="#ffffb3" stroke="black" points="951.92,-122 832.08,-122 832.08,-86 951.92,-86 951.92,-122"/>
<text text-anchor="middle" x="892" y="-99.8" font-family="Times,serif" font-size="14.00">SearchComponent</text>
</g>
<!-- SearchComponent&#45;&gt;AppModule -->
<g id="edge12" class="edge">
<title>SearchComponent&#45;&gt;AppModule</title>
<path fill="none" stroke="black" d="M892,-122.27C892,-140.56 892,-166 892,-166 892,-166 1434.23,-166 1434.23,-166"/>
<polygon fill="black" stroke="black" points="1434.23,-169.5 1444.23,-166 1434.23,-162.5 1434.23,-169.5"/>
</g>
<!-- SpinnerComponent -->
<g id="node13" class="node">
<title>SpinnerComponent</title>
<polygon fill="#ffffb3" stroke="black" points="814.38,-122 689.62,-122 689.62,-86 814.38,-86 814.38,-122"/>
<text text-anchor="middle" x="752" y="-99.8" font-family="Times,serif" font-size="14.00">SpinnerComponent</text>
</g>
<!-- SpinnerComponent&#45;&gt;AppModule -->
<g id="edge13" class="edge">
<title>SpinnerComponent&#45;&gt;AppModule</title>
<path fill="none" stroke="black" d="M752,-122.11C752,-141.34 752,-169 752,-169 752,-169 1434.17,-169 1434.17,-169"/>
<polygon fill="black" stroke="black" points="1434.17,-172.5 1444.17,-169 1434.17,-165.5 1434.17,-172.5"/>
</g>
<!-- TopMoviesComponent -->
<g id="node14" class="node">
<title>TopMoviesComponent</title>
<polygon fill="#ffffb3" stroke="black" points="671.88,-122 526.12,-122 526.12,-86 671.88,-86 671.88,-122"/>
<text text-anchor="middle" x="599" y="-99.8" font-family="Times,serif" font-size="14.00">TopMoviesComponent</text>
</g>
<!-- TopMoviesComponent&#45;&gt;AppModule -->
<g id="edge14" class="edge">
<title>TopMoviesComponent&#45;&gt;AppModule</title>
<path fill="none" stroke="black" d="M599,-122.13C599,-142.57 599,-173 599,-173 599,-173 1434.11,-173 1434.11,-173"/>
<polygon fill="black" stroke="black" points="1434.11,-176.5 1444.11,-173 1434.11,-169.5 1434.11,-176.5"/>
</g>
<!-- TopTvComponent -->
<g id="node15" class="node">
<title>TopTvComponent</title>
<polygon fill="#ffffb3" stroke="black" points="507.94,-122 388.06,-122 388.06,-86 507.94,-86 507.94,-122"/>
<text text-anchor="middle" x="448" y="-99.8" font-family="Times,serif" font-size="14.00">TopTvComponent</text>
</g>
<!-- TopTvComponent&#45;&gt;AppModule -->
<g id="edge15" class="edge">
<title>TopTvComponent&#45;&gt;AppModule</title>
<path fill="none" stroke="black" d="M448,-122.04C448,-143.66 448,-177 448,-177 448,-177 1434.02,-177 1434.02,-177"/>
<polygon fill="black" stroke="black" points="1434.02,-180.5 1444.02,-177 1434.02,-173.5 1434.02,-180.5"/>
</g>
<!-- TwostepverificationComponent -->
<g id="node16" class="node">
<title>TwostepverificationComponent</title>
<polygon fill="#ffffb3" stroke="black" points="370.07,-122 175.93,-122 175.93,-86 370.07,-86 370.07,-122"/>
<text text-anchor="middle" x="273" y="-99.8" font-family="Times,serif" font-size="14.00">TwostepverificationComponent</text>
</g>
<!-- TwostepverificationComponent&#45;&gt;AppModule -->
<g id="edge16" class="edge">
<title>TwostepverificationComponent&#45;&gt;AppModule</title>
<path fill="none" stroke="black" d="M273,-122.01C273,-144.49 273,-180 273,-180 273,-180 1434.25,-180 1434.25,-180"/>
<polygon fill="black" stroke="black" points="1434.25,-183.5 1444.25,-180 1434.25,-176.5 1434.25,-183.5"/>
</g>
<!-- AppComponent  -->
<g id="node19" class="node">
<title>AppComponent </title>
<polygon fill="#80b1d3" stroke="black" points="2036.44,-252 1927.56,-252 1927.56,-216 2036.44,-216 2036.44,-252"/>
<text text-anchor="middle" x="1982" y="-229.8" font-family="Times,serif" font-size="14.00">AppComponent </text>
</g>
<!-- AppModule&#45;&gt;AppComponent  -->
<g id="edge18" class="edge">
<title>AppModule&#45;&gt;AppComponent </title>
<path fill="none" stroke="black" stroke-dasharray="1,5" d="M1527.78,-184C1643.8,-184 1961.46,-184 1961.46,-184 1961.46,-184 1961.46,-205.95 1961.46,-205.95"/>
<polygon fill="black" stroke="black" points="1957.96,-205.95 1961.46,-215.95 1964.96,-205.95 1957.96,-205.95"/>
</g>
<!-- AppServerModule -->
<g id="node20" class="node">
<title>AppServerModule</title>
<polygon fill="#8dd3c7" stroke="black" points="2685.19,-252 2682.19,-256 2661.19,-256 2658.19,-252 2564.81,-252 2564.81,-216 2685.19,-216 2685.19,-252"/>
<text text-anchor="middle" x="2625" y="-229.8" font-family="Times,serif" font-size="14.00">AppServerModule</text>
</g>
<!-- AppModule&#45;&gt;AppServerModule -->
<g id="edge19" class="edge">
<title>AppModule&#45;&gt;AppServerModule</title>
<path fill="none" stroke="black" d="M1527.89,-180C1733.38,-180 2625,-180 2625,-180 2625,-180 2625,-205.72 2625,-205.72"/>
<polygon fill="black" stroke="black" points="2621.5,-205.72 2625,-215.72 2628.5,-205.72 2621.5,-205.72"/>
</g>
<!-- AppRoutingModule -->
<g id="node18" class="node">
<title>AppRoutingModule</title>
<polygon fill="#8dd3c7" stroke="black" points="152.27,-122 149.27,-126 128.27,-126 125.27,-122 23.73,-122 23.73,-86 152.27,-86 152.27,-122"/>
<text text-anchor="middle" x="88" y="-99.8" font-family="Times,serif" font-size="14.00">AppRoutingModule</text>
</g>
<!-- AppRoutingModule&#45;&gt;AppModule -->
<g id="edge17" class="edge">
<title>AppRoutingModule&#45;&gt;AppModule</title>
<path fill="none" stroke="black" d="M88,-122.15C88,-145.76 88,-184 88,-184 88,-184 1434.16,-184 1434.16,-184"/>
<polygon fill="black" stroke="black" points="1434.16,-187.5 1444.16,-184 1434.16,-180.5 1434.16,-187.5"/>
</g>
<!-- AppServerModule&#45;&gt;AppComponent  -->
<g id="edge20" class="edge">
<title>AppServerModule&#45;&gt;AppComponent </title>
<path fill="none" stroke="black" stroke-dasharray="1,5" d="M2564.8,-234C2564.8,-234 2046.88,-234 2046.88,-234"/>
<polygon fill="black" stroke="black" points="2046.88,-230.5 2036.88,-234 2046.88,-237.5 2046.88,-230.5"/>
</g>
</g>
</svg>
